<svg width="24" height="24" viewBox="0 0 24 24"  xmlns="http://www.w3.org/2000/svg">
<path d="M6.11952 4C4.9508 4 4 4.95187 4 6.12188C4 7.2924 4.9508 8.24464 6.11952 8.24464C7.2873 8.24464 8.23733 7.29235 8.23733 6.12188C8.23738 4.95187 7.2873 4 6.11952 4ZM7.72424 9.14105H4.51225C4.36969 9.14105 4.25418 9.25687 4.25418 9.39969V19.7413C4.25418 19.8842 4.36969 19.9999 4.51225 19.9999H7.72424C7.8668 19.9999 7.98231 19.8842 7.98231 19.7413V9.39969C7.98231 9.25687 7.8668 9.14105 7.72424 9.14105ZM13.0723 10.0714C13.6507 9.43984 14.6044 8.88404 15.8944 8.88404C19.5122 8.88404 20 11.505 20 14.0688V19.7414C20 19.8842 19.8845 20 19.7419 20H16.5358C16.3932 20 16.2777 19.8842 16.2777 19.7414V14.7133C16.2777 13.3055 16.1739 12.2287 14.8678 12.2287C13.6685 12.2287 13.2012 12.9004 13.2012 14.6246V19.7413C13.2012 19.8842 13.0857 19.9999 12.9432 19.9999H9.7382C9.59565 19.9999 9.48014 19.8842 9.48014 19.7413V9.3997C9.48014 9.25688 9.59565 9.14107 9.7382 9.14107H12.8143C12.9568 9.14107 13.0723 9.25688 13.0723 9.3997V10.0714Z"/>
</svg>
