<svg width="24" height="24" viewBox="0 0 24 24" xmlns="http://www.w3.org/2000/svg">
    <title>SHARE</title>
    <path d="M18.2097 10.2654C18.6243 10.2654 18.9644 10.5818 18.9974 10.9844L19 11.0486V17.4265C19 18.8147 17.8908 19.9463 16.5028 19.9981L16.4032 20H7.59677C6.19597 20 5.05422 18.9008 5.00188 17.5252L5 17.4265V11.0486C5 10.616 5.35384 10.2654 5.79032 10.2654C6.20498 10.2654 6.54505 10.5818 6.57803 10.9844L6.58065 11.0486V17.4265C6.58065 17.9595 6.99846 18.3957 7.5272 18.4312L7.59677 18.4335H16.4032C16.941 18.4335 17.3813 18.0194 17.417 17.4954L17.4194 17.4265V11.0486C17.4194 10.616 17.7732 10.2654 18.2097 10.2654ZM11.7737 4.00738L11.8409 4.00071L11.9198 4L11.9896 4.00582L12.07 4.02026L12.1011 4.02843C12.1893 4.05256 12.2741 4.09238 12.3511 4.14764L12.405 4.19017L12.447 4.22878L15.9597 7.71006C16.2684 8.01594 16.2684 8.51186 15.9597 8.81774C15.6693 9.10562 15.2089 9.12256 14.8984 8.86854L14.8421 8.81774L12.6774 6.67226V15.3005C12.6774 15.7115 12.3581 16.0485 11.9519 16.0812L11.8871 16.0838C11.4724 16.0838 11.1324 15.7673 11.0994 15.3648L11.0968 15.3005V6.67405L8.93429 8.81774C8.64381 9.10562 8.18346 9.12256 7.87299 8.86854L7.81661 8.81774C7.52612 8.52985 7.50904 8.07362 7.76535 7.76593L7.81661 7.71006L11.3175 4.23962C11.3428 4.21363 11.3698 4.18936 11.3984 4.16701L11.4496 4.13087C11.4666 4.11898 11.4844 4.10819 11.5027 4.09809L11.5112 4.09398C11.5912 4.05049 11.6798 4.02075 11.7737 4.00738Z"/>
</svg>
