<svg width="24" height="24" viewBox="0 0 24 24" fill="none" xmlns="http://www.w3.org/2000/svg">
<path d="M11.9977 4L9.37304 9.26719L3.5 10.1138L7.75155 14.2115L6.75042 20L12.0027 17.2653L17.257 19.9961L16.2515 14.2084L20.5 10.1076L14.6263 9.26526L11.9977 4Z" fill="#FCEA2B"/>
<path fill-rule="evenodd" clip-rule="evenodd" d="M11.9972 3C12.3835 2.99986 12.7364 3.20618 12.9075 3.53219L15.4498 8.37659L21.1307 9.15161C21.513 9.20377 21.8307 9.45571 21.9502 9.8015C22.0697 10.1473 21.9703 10.5269 21.6938 10.7809L17.5848 14.5538L18.5573 19.879C18.6227 20.2374 18.4663 20.5996 18.1539 20.8135C17.8414 21.0273 17.4271 21.0556 17.0851 20.8865L12.0033 18.374L6.92339 20.8901C6.58155 21.0594 6.16718 21.0314 5.8546 20.8178C5.54199 20.6041 5.38533 20.242 5.45049 19.8836L6.41877 14.5577L2.30678 10.7876C2.03005 10.5339 1.93035 10.1543 2.04958 9.80844C2.16882 9.46256 2.48632 9.21043 2.86858 9.15798L8.54883 8.37901L11.0873 3.53283C11.2582 3.2067 11.6109 3.00013 11.9972 3ZM11.9984 6.1138L10.1333 9.67438C9.98563 9.95638 9.69995 10.1519 9.36941 10.1972L5.19603 10.7696L8.2172 13.5395C8.45647 13.7589 8.56574 14.0751 8.50938 14.385L7.798 18.298L11.5303 16.4493C11.8258 16.3029 12.1791 16.3028 12.4748 16.449L16.2085 18.295L15.494 14.3825C15.4374 14.0727 15.5464 13.7564 15.7855 13.5369L18.8045 10.7648L14.6307 10.1954C14.3001 10.1503 14.0143 9.95498 13.8663 9.67307L11.9984 6.1138Z" fill="black"/>
</svg>
