<svg width="24" height="24" viewBox="0 0 24 24" xmlns="http://www.w3.org/2000/svg">
<path d="M6.41594 8.75C5.39808 8.75 4.47499 9.14959 3.81439 9.78042C3.15427 10.4108 2.75 11.2767 2.75 12.217C2.75 14.0918 4.35289 15.6711 6.40243 15.6711H10.3727C10.7869 15.6711 11.1227 16.0068 11.1227 16.4211C11.1227 16.8353 10.7869 17.1711 10.3727 17.1711H6.40243C3.59039 17.1711 1.25 14.9847 1.25 12.217C1.25 10.836 1.84505 9.58695 2.77845 8.6956C3.71137 7.80471 5.00301 7.25 6.41594 7.25H10.3727C10.7869 7.25 11.1227 7.58579 11.1227 8C11.1227 8.41421 10.7869 8.75 10.3727 8.75H6.41594ZM12.8638 8C12.8638 7.58579 13.1996 7.25 13.6138 7.25H17.5976C20.4096 7.25 22.75 9.43639 22.75 12.2041C22.75 13.5851 22.1549 14.8341 21.2215 15.7255C20.2886 16.6163 18.997 17.1711 17.5841 17.1711H13.6138C13.1996 17.1711 12.8638 16.8353 12.8638 16.4211C12.8638 16.0068 13.1996 15.6711 13.6138 15.6711H17.5841C18.6019 15.6711 19.525 15.2715 20.1856 14.6406C20.8457 14.0103 21.25 13.1444 21.25 12.2041C21.25 10.3292 19.6471 8.75 17.5976 8.75H13.6138C13.1996 8.75 12.8638 8.41421 12.8638 8ZM7.44851 12.217C7.44851 11.8028 7.7843 11.467 8.19851 11.467H15.788C16.2022 11.467 16.538 11.8028 16.538 12.217C16.538 12.6312 16.2022 12.967 15.788 12.967H8.19851C7.7843 12.967 7.44851 12.6312 7.44851 12.217Z"/>
</svg>